# xmcd
#
# Track frame offsets:
#	150
#	15412
#	29825
#	39650
#	54612
#	67382
#	80787
#	94312
#	113575
#	127162
#	142787
#	159212
#	186525
#
# Disc length: 4440 seconds
#
# Revision: 1
# Processed by: cddbd v1.4PL0 Copyright (c) Steve Scherf et al.
# Submitted via: audiograbber 1.82.02
#
DISCID=bc11560d
DTITLE=George Jones - The Gospel Collection
DYEAR=1900
DGENRE=
TTITLE0=Amazing Grace
TTITLE1=It Is No Secret
TTITLE2=Just A Little Talk With Jesus
TTITLE3=Where We'll Never Grow Old
TTITLE4=Swing Low, Sweet Chariot
TTITLE5=Why Me Lord
TTITLE6=I'll Fly Away
TTITLE7=Precious Memories (Featuring Patti Page)
TTITLE8=Just A Closer Walk With Thee
TTITLE9=In The Garden
TTITLE10=Lonesome Valley
TTITLE11=When Mama San
TTITLE12=??
EXTD=Sings the greatest stories ever told
EXTT0=
EXTT1=
EXTT2=
EXTT3=
EXTT4=
EXTT5=
EXTT6=
EXTT7=
EXTT8=
EXTT9=
EXTT10=
EXTT11=
EXTT12=
PLAYORDER=
